<?xml version="1.0" standalone="no"?><!DOCTYPE svg PUBLIC "-//W3C//DTD SVG 1.1//EN"
    "http://www.w3.org/Graphics/SVG/1.1/DTD/svg11.dtd">
<svg xmlns:xlink="http://www.w3.org/1999/xlink" style="" class="icon" height="200" p-id="5564"
    t="1551077211593" version="1.1" viewBox="0 0 3143 1024" width="613.8671875"
    xmlns="http://www.w3.org/2000/svg">
    <defs>
        <style type="text/css"></style>
    </defs>
    <path
        d="M1599.35 212h-153.237v-74.46h-39.928V212h-152.158v209.353h152.158v114.389h39.928V422.433h153.237V212.002z m-306.474 172.662V249.77h112.23v135.971h-112.23z m267.626 0h-114.389V249.77h114.389v134.892z m133.812-233.093v372.302h350.72V151.569h-350.72z m311.871 336.69h-275.181V187.18h275.181v301.079z"
        fill="" p-id="5565"></path>
    <path
        d="M1886.401 421.352v-82.014h85.252v-34.532h-85.252v-51.799h91.727v-34.532h-221.224v34.532h92.806v51.799h-85.252v34.532h85.252v82.014h-98.201v34.532h233.093v-34.532z"
        fill="" p-id="5566"></path>
    <path
        d="M1939.279 417.036l30.216-23.741c-16.187-18.345-45.323-51.799-45.323-51.799l-28.058 21.582c24.82 26.978 43.165 53.957 43.165 53.957z m320.502-18.345l25.899-30.216-64.748-55.036v-19.425h55.036v-34.532h-55.036v-56.116c24.82-6.475 56.116-11.871 56.116-11.871l-7.554-37.77c-33.453 10.792-142.446 22.662-142.446 22.662l5.395 36.691 50.719-8.633v55.036h-61.511v34.532h57.194c-4.316 14.029-24.82 74.46-64.748 130.576l28.058 30.216s23.741-37.77 39.928-75.539v156.475h38.848V360.922l38.848 37.77z"
        fill="" p-id="5567"></path>
    <path
        d="M2411.94 339.338c3.237-6.475 6.475-11.871 8.633-18.345l-36.691-5.395 16.187-9.712c73.382-47.483 97.122-101.439 97.122-101.439v-32.375h-126.26c5.395-7.554 9.712-16.187 12.95-24.82l-35.612-14.029s-29.137 64.748-88.489 108.993l31.296 24.82s28.058-25.899 55.036-59.352h106.835c-15.108 23.741-35.612 43.165-58.273 58.273l-47.483-38.848-24.82 25.899 39.928 33.453c-48.562 26.978-94.964 38.848-94.964 38.848l24.82 30.216c34.532-12.95 60.432-23.741 83.093-35.612-6.475 10.792-21.582 33.453-49.641 59.352-17.266 16.187-39.928 32.375-66.907 47.483l29.137 29.137s57.194-29.137 99.28-79.856h79.856c-8.633 38.848-33.453 65.827-62.589 85.252l-43.165-42.086-26.978 22.661s24.82 22.661 37.77 36.691c-58.273 24.82-120.863 25.899-120.863 25.899l16.187 32.375c78.777-6.475 131.655-28.058 168.346-56.116 61.511-46.402 75.539-105.756 75.539-105.756v-34.532h-99.28z m168.345-165.108h166.187v36.691h-166.187z m133.814 302.158l37.77-15.108c-7.554-19.425-46.403-103.598-46.403-103.598l-35.612 15.108c9.712 20.504 19.425 43.165 26.978 62.589-17.266 4.316-62.589 15.108-85.253 21.582 0 0 10.792-18.345 31.296-74.46 16.187-45.323 19.425-59.352 25.899-67.986h90.648v-36.691h-195.323v36.691h63.668c-3.237 11.871-14.029 53.957-30.216 93.885-9.712 22.661-19.425 45.323-33.453 61.511l9.712 29.137s99.28-30.216 138.129-33.453c1.079 7.554 2.159 10.792 2.159 10.792z"
        fill="" p-id="5568"></path>
    <path
        d="M2839.279 220.633l2.158-82.014h-42.086v82.014h-51.799v37.77h51.799c0 28.058 0 58.273-2.159 78.777-4.316 47.483-10.792 65.828-10.792 65.828-20.504 77.698-80.935 111.151-80.935 111.151l30.216 28.057c107.914-69.065 101.439-222.302 101.439-222.302l1.079-61.511h66.907l-7.554 202.878c0 25.899-24.82 23.741-24.82 23.741h-46.403l7.554 39.928h44.245c57.194 0 58.273-58.273 58.273-58.273l8.633-246.043h-105.756zM1659.782 684.662h31.296v158.632h-31.296z m0-62.59h31.296v35.612h-31.296z m1025.18 62.59h31.296v158.632h-31.296z m65.828-79.857h31.296v238.49h-31.296z m-65.828 17.267h31.296v35.612h-31.296z m-1095.323 60.431s-36.691-9.712-61.511 18.345v-96.043h-31.296v238.49h31.296V735.381c5.395-10.792 20.504-32.375 50.719-25.899 0 0 16.187 3.237 16.187 30.216v103.597h32.375V740.777s4.316-47.482-37.77-58.273z m225.54 0s-38.848-9.712-62.589 20.504l-5.395-18.345h-23.741v158.632h30.216V736.459c5.395-9.712 22.662-31.296 50.719-26.978 0 0 16.187 3.237 16.187 30.216v103.597h32.375V740.776s4.316-47.483-37.77-58.273z m152.157 3.238c-37.77-14.029-77.698 5.395-77.698 5.395v29.137s83.093-37.77 83.093 28.057v2.159s-45.323-14.029-70.144 2.159c0 0-38.848 21.582-21.582 65.827 0 0 14.029 32.375 49.641 30.216 11.871 0 26.978-5.395 44.245-17.266l2.158 12.95h26.978V741.857c-1.079 0 2.159-42.086-36.691-56.116z m3.237 117.626s-14.029 15.108-42.086 16.187c0 0-25.899-2.159-21.582-26.978 4.316-26.978 36.691-24.82 63.668-16.187v26.978z m234.173-18.345l-66.907-161.871h-43.165v220.144h32.375V674.949l70.144 168.346h15.108l71.223-167.267v167.267h31.296V623.151h-42.086z m213.67-104.676c-45.323 0-82.014 36.691-82.014 83.093 0 45.323 36.691 83.093 82.014 83.093 45.323 0 82.014-36.691 82.014-83.093 0-46.403-36.691-83.093-82.014-83.093z m0 138.128c-30.216 0-53.957-24.82-53.957-55.036s24.82-55.036 53.957-55.036c30.216 0 53.957 24.82 53.957 55.036s-23.741 55.036-53.957 55.036z m203.956-130.575c-39.928-19.425-67.986 8.633-67.986 8.633v-90.648h-32.375v238.49h24.82l4.316-14.029c14.029 16.187 38.848 18.345 38.848 18.345 21.582 0 37.77-9.712 49.641-22.662 12.95-14.029 20.504-36.691 21.582-46.402 3.237-24.82 2.159-72.303-38.848-91.727z m-30.216 131.655c-29.137 1.079-38.848-18.345-38.848-18.345V724.59s14.029-16.187 37.77-16.187 34.532 18.345 37.77 46.402c2.159 26.978-4.316 63.668-36.691 64.748z m333.454-115.468c-18.345-24.82-48.562-22.661-48.562-22.661-18.345 0-34.532 7.554-45.323 17.266-17.266 15.108-22.662 36.691-22.662 36.691-14.029 55.036 10.792 86.331 10.792 86.331 11.871 16.187 36.691 24.82 56.116 25.899 33.453 2.159 58.273-9.712 58.273-9.712v-26.978c-98.201 34.532-99.28-36.691-99.28-36.691h105.756c2.159-35.612-5.395-57.194-15.108-70.144z m-87.411 41.007s6.475-36.691 37.77-36.691 32.375 36.691 32.375 36.691H2838.2z m-1471.942 70.144c-46.403 0-83.093-37.77-83.093-84.173s37.77-84.173 83.093-84.173c31.296 0 58.273 17.266 72.303 43.165h33.453c-16.187-42.086-57.194-72.302-105.756-72.302-62.589 0-113.309 50.719-113.309 114.389 0 62.589 50.719 114.389 113.309 114.389 48.562 0 89.569-31.296 105.756-74.46h-32.375c-14.029 25.899-42.086 43.165-73.382 43.165zM228.846 376.029s86.331 114.389 181.295 189.928c0 0 35.612 30.216 74.46-4.316 38.848-34.532 198.561-180.217 198.561-180.217s60.432-59.352 127.338 0c0 0 141.367 125.18 217.986 230.935 0 0 4.316 4.316 1.079 10.792-4.316 6.475-10.792 24.82-10.792 24.82S933.52 537.899 836.399 456.964c0 0-37.77-29.137-71.223 2.159-32.375 30.216-187.769 172.662-212.589 191.007-24.82 18.345-65.827 36.691-123.022-15.108-46.402-39.928-164.029-152.158-210.431-222.302 0 0-4.316-4.316-1.079-11.871 4.316-8.633 10.792-24.82 10.792-24.82z"
        fill="" p-id="5569"></path>
    <path
        d="M246.114 341.497l49.641 53.957s6.475 7.554 17.266-2.158c11.871-9.712 164.029-157.553 221.224-199.64 33.453-23.741 69.065-38.848 108.993-42.086 30.216-2.159 61.511 1.079 96.043 16.187 36.691 16.187 93.885 62.589 146.763 117.626 37.77 38.848 74.46 82.014 105.756 124.101 21.582 28.058 42.086 56.116 57.194 80.935 0 0 0-34.532-15.108-63.668 0 0-62.589-118.705-183.453-230.935-11.871-10.792-115.467-114.389-215.827-112.23 0 0-93.885-5.395-179.137 64.748-12.95 12.95-161.871 142.447-209.353 193.165z"
        fill="" p-id="5570"></path>
    <path
        d="M352.947 455.884l56.116 53.957s12.95 9.712 28.057-4.316c0 0 53.957-52.878 100.359-94.964 43.165-39.928 87.41-80.935 103.597-92.805 0 0 70.144-73.382 160.792-2.158 0 0 121.942 96.043 242.806 260.072l4.316-19.425s4.316-16.187-6.475-31.296c0 0-93.885-139.208-210.431-238.49 0 0-58.273-61.511-131.655-76.619 0 0-61.511-14.029-118.705 31.296-28.057 22.662-90.648 79.856-141.367 128.417-49.641 47.483-87.41 86.331-87.41 86.331z m647.482 226.619l-49.641-53.957s-6.475-7.554-17.266 2.158c-11.871 9.712-164.029 157.553-221.224 199.64-33.453 23.741-69.065 38.848-108.993 42.086-30.216 2.159-61.511-1.079-96.043-16.187-36.691-16.187-93.885-62.589-146.763-117.626-37.77-39.928-75.539-83.093-106.835-125.18-21.582-28.057-42.086-56.116-57.194-80.935 0 0 0 34.532 15.108 63.668 0 0 61.511 118.705 183.453 230.935 11.871 10.792 115.467 114.389 215.828 112.23 0 0 93.885 5.395 179.137-64.748 14.029-12.95 164.029-141.367 210.431-192.087z"
        fill="" p-id="5571"></path>
    <path
        d="M893.595 568.116l-56.116-53.957s-12.95-9.712-28.057 4.316c0 0-53.957 52.878-100.359 94.964-43.165 39.928-87.41 80.935-103.598 92.805 0 0-70.144 73.382-160.792 2.158 0 0-121.942-96.043-242.806-260.072l-4.316 19.425s-4.316 16.187 6.475 31.296c0 0 93.885 139.208 210.431 238.49 0 0 58.273 61.511 131.655 76.619 0 0 61.511 14.029 118.705-31.296 28.057-22.662 90.648-79.856 141.367-128.417 50.719-47.483 87.41-86.331 87.41-86.331z"
        fill="" p-id="5572"></path>
</svg>